<?xml version="1.0" encoding="UTF-8" ?>
<!DOCTYPE svg PUBLIC "-//W3C//DTD SVG 1.1//EN" "http://www.w3.org/Graphics/SVG/1.1/DTD/svg11.dtd">
<svg width="100pt" height="100pt" viewBox="0 0 100 100" version="1.1" xmlns="http://www.w3.org/2000/svg">
<g id="#4a90e2ff">
<path fill="#4a90e2" opacity="1.00" d=" M 33.12 24.39 C 36.75 15.80 46.22 11.65 55.14 11.87 C 55.84 13.29 56.60 14.68 57.33 16.09 C 61.31 16.89 64.39 19.58 66.23 23.12 C 69.43 22.39 72.70 22.03 75.98 21.91 C 76.48 22.99 76.98 24.06 77.49 25.14 C 84.29 26.26 87.28 33.88 85.93 40.04 C 85.15 42.81 86.77 45.88 85.26 48.45 C 83.44 51.57 81.62 54.71 80.12 58.00 C 79.80 59.83 79.48 62.38 81.42 63.45 C 86.05 66.39 91.88 67.19 95.94 71.06 C 98.37 73.20 99.54 76.36 100.00 79.50 L 100.00 82.00 C 95.22 82.00 90.43 82.00 85.65 81.99 C 85.81 83.99 85.95 86.00 86.09 88.00 C 62.03 88.00 37.97 88.00 13.91 88.00 C 14.05 86.00 14.19 83.99 14.35 81.99 C 9.57 82.00 4.78 82.00 0.00 82.00 L 0.00 79.38 C 0.28 76.20 1.42 72.98 3.87 70.83 C 7.72 67.21 13.14 66.27 17.57 63.62 C 19.95 62.48 19.22 59.61 19.37 57.48 C 17.74 54.52 16.55 51.34 14.67 48.51 C 13.37 46.49 14.03 44.05 14.54 41.90 C 13.66 37.60 13.28 32.78 15.94 28.99 C 19.32 23.62 25.99 21.90 31.97 21.89 C 32.26 22.51 32.83 23.77 33.12 24.39 M 37.90 24.00 C 35.18 28.34 35.68 33.82 37.71 38.32 C 35.10 40.38 36.05 44.23 38.87 45.54 C 39.67 49.09 41.03 52.71 43.96 55.05 C 44.00 57.09 44.00 59.13 43.97 61.18 C 45.81 62.38 47.66 63.84 49.94 64.00 C 52.27 63.89 54.15 62.40 56.03 61.19 C 56.00 59.14 56.00 57.10 56.04 55.05 C 58.96 52.72 60.31 49.11 61.11 45.58 C 64.11 44.18 64.79 40.19 62.09 38.12 C 66.14 32.01 63.51 19.63 54.75 19.88 C 54.08 18.61 53.42 17.34 52.77 16.06 C 47.02 16.44 40.88 18.75 37.90 24.00 M 18.81 31.96 C 16.83 35.49 17.72 39.68 19.22 43.20 C 17.21 44.40 17.48 47.52 19.91 47.91 C 20.46 50.67 21.10 53.62 23.36 55.54 C 23.39 57.25 23.41 58.96 23.39 60.68 C 25.44 61.73 27.72 62.05 30.00 62.11 C 30.00 64.01 30.00 65.91 30.00 67.82 C 33.53 66.23 37.34 64.89 39.99 61.92 C 39.98 60.27 39.99 58.62 39.97 56.97 C 37.86 54.47 36.39 51.52 35.58 48.35 C 32.41 45.67 31.06 41.09 33.10 37.32 C 32.39 34.71 32.09 32.03 32.01 29.33 C 30.92 28.50 30.11 27.41 29.49 26.20 C 25.38 26.56 20.80 28.01 18.81 31.96 M 67.44 26.98 C 67.99 30.45 68.18 34.04 67.04 37.42 C 68.84 41.21 67.57 45.69 64.42 48.34 C 63.59 51.51 62.14 54.47 60.02 56.98 C 60.01 58.63 60.02 60.29 60.01 61.95 C 62.68 64.88 66.47 66.22 70.00 67.80 C 70.00 65.91 70.00 64.02 70.00 62.13 C 71.52 61.92 73.13 61.98 74.56 61.34 C 76.93 60.52 75.70 57.44 76.07 55.56 C 78.34 53.86 79.33 51.19 80.05 48.55 C 81.18 47.65 81.89 46.42 82.37 45.07 C 81.91 44.57 81.00 43.57 80.55 43.07 C 84.20 38.24 82.10 28.20 74.77 28.91 C 74.35 28.00 73.93 27.08 73.51 26.17 C 71.48 26.39 69.45 26.66 67.44 26.98 M 22.23 64.65 C 19.61 66.51 22.65 69.00 23.36 71.07 C 24.36 70.49 25.36 69.91 26.36 69.32 C 26.39 68.47 26.46 66.78 26.49 65.93 C 25.08 65.48 23.68 64.97 22.23 64.65 M 42.34 65.08 C 41.97 65.51 41.22 66.37 40.85 66.80 C 41.61 72.86 43.30 78.77 45.57 84.43 C 47.42 79.17 46.77 73.27 47.65 67.76 C 45.84 66.95 44.07 66.06 42.34 65.08 M 52.35 67.76 C 53.24 73.27 52.57 79.18 54.43 84.43 C 56.70 78.78 58.37 72.88 59.16 66.84 C 58.78 66.39 58.04 65.51 57.66 65.07 C 55.94 66.05 54.16 66.95 52.35 67.76 M 73.49 65.91 C 73.54 66.77 73.64 68.50 73.69 69.36 C 74.34 69.73 75.62 70.47 76.27 70.84 C 76.54 68.94 78.82 66.44 77.03 64.77 C 75.83 65.09 74.65 65.47 73.49 65.91 M 81.40 68.12 C 80.85 69.75 80.30 71.38 79.76 73.01 C 81.34 74.54 82.80 76.19 84.09 77.97 C 87.94 78.02 91.78 78.02 95.63 77.96 C 93.64 71.77 86.56 70.56 81.40 68.12 M 4.22 77.96 C 8.12 78.02 12.02 78.02 15.93 77.97 C 17.15 76.30 18.50 74.73 19.97 73.27 C 19.12 71.60 18.26 69.93 17.40 68.26 C 12.53 70.60 5.71 71.89 4.22 77.96 M 21.46 77.42 C 19.57 79.11 18.91 81.62 18.23 83.96 C 25.83 84.04 33.42 83.98 41.02 84.00 C 39.23 79.15 37.79 74.16 37.06 69.03 C 31.79 71.64 25.82 73.28 21.46 77.42 M 62.91 69.04 C 62.22 74.17 60.74 79.15 58.98 84.00 C 66.58 83.98 74.18 84.04 81.77 83.97 C 81.08 81.65 80.45 79.15 78.60 77.45 C 74.23 73.27 68.24 71.60 62.91 69.04 Z" />
</g>
</svg>
